<svg width="107" height="107" viewBox="0 0 107 107" fill="none" xmlns="http://www.w3.org/2000/svg">
<path d="M53.4994 96.1943C64.8153 96.1943 75.6677 91.6991 83.6692 83.6976C91.6708 75.696 96.166 64.8436 96.166 53.5277C96.166 42.2118 91.6708 31.3593 83.6692 23.3578C75.6677 15.3562 64.8153 10.861 53.4994 10.861C42.1834 10.861 31.331 15.3562 23.3295 23.3578C15.3279 31.3593 10.8327 42.2118 10.8327 53.5277C10.8327 64.8436 15.3279 75.696 23.3295 83.6976C31.331 91.6991 42.1834 96.1943 53.4994 96.1943ZM53.4994 106.861C24.0434 106.861 0.166016 82.9837 0.166016 53.5277C0.166016 24.0717 24.0434 0.194336 53.4994 0.194336C82.9554 0.194336 106.833 24.0717 106.833 53.5277C106.833 82.9837 82.9554 106.861 53.4994 106.861Z" fill="#36B27E"/>
<path fill-rule="evenodd" clip-rule="evenodd" d="M41.27 49.757C40.778 49.2476 40.1895 48.8413 39.5388 48.5618C38.8882 48.2823 38.1883 48.1352 37.4802 48.129C36.772 48.1228 36.0697 48.2578 35.4143 48.526C34.7588 48.7941 34.1633 49.1901 33.6626 49.6909C33.1618 50.1917 32.7658 50.7871 32.4976 51.4426C32.2295 52.098 32.0945 52.8003 32.1007 53.5085C32.1068 54.2166 32.254 54.9165 32.5335 55.5672C32.813 56.2178 33.2193 56.8063 33.7287 57.2983L44.3954 67.965C45.3955 68.9648 46.7518 69.5265 48.166 69.5265C49.5802 69.5265 50.9365 68.9648 51.9367 67.965L73.27 46.6317C73.7794 46.1397 74.1857 45.5512 74.4652 44.9005C74.7447 44.2498 74.8919 43.55 74.898 42.8418C74.9042 42.1336 74.7692 41.4314 74.5011 40.7759C74.2329 40.1205 73.8369 39.525 73.3361 39.0242C72.8354 38.5235 72.2399 38.1275 71.5844 37.8593C70.929 37.5911 70.2267 37.4562 69.5185 37.4623C68.8104 37.4685 68.1105 37.6156 67.4599 37.8951C66.8092 38.1746 66.2207 38.5809 65.7287 39.0903L48.166 56.653L41.27 49.757Z" fill="#36B27E"/>
</svg>
